name Walk10.mot
datacolumns 19
datarows 25
range 1.36000000 1.38400000
endheader

                time	   L_ground_force_vx	   L_ground_force_vy	   L_ground_force_vz	   L_ground_force_px	   L_ground_force_py	   L_ground_force_pz	   R_ground_force_vx	   R_ground_force_vy	   R_ground_force_vz	   R_ground_force_px	   R_ground_force_py	   R_ground_force_pz	   L_ground_torque_x	   L_ground_torque_y	   L_ground_torque_z	   R_ground_torque_x	   R_ground_torque_y	   R_ground_torque_z	
          1.36000000	         -2.75228473	         58.67757661	         -5.69587646	          0.00368115	          0.00000000	         -0.00199447	         -0.00000000	          0.00000000	         -0.00000000	          0.00000000	          0.00000000	          0.00000000	          0.00000000	          0.09777054	          0.00000000	          0.00000000	          0.00000000	          0.00000000	
          1.36100000	         -3.24206989	         63.64428373	         -6.02668733	         -0.01551409	          0.00000000	         -0.00489117	         -0.00000000	          0.00000000	         -0.00000000	          0.00000000	          0.00000000	          0.00000000	          0.00000000	          0.10681635	          0.00000000	          0.00000000	          0.00000000	          0.00000000	
          1.36200000	         -3.75598996	         68.78097236	         -6.36138179	         -0.03464586	          0.00000000	         -0.00778844	         -0.00000000	          0.00000000	         -0.00000000	          0.00000000	          0.00000000	          0.00000000	          0.00000000	          0.11629871	          0.00000000	          0.00000000	          0.00000000	          0.00000000	
          1.36300000	         -4.29433534	         74.08283520	         -6.69898036	         -0.05366724	          0.00000000	         -0.01067966	         -0.00000000	          0.00000000	         -0.00000000	          0.00000000	          0.00000000	          0.00000000	          0.00000000	          0.12621822	          0.00000000	          0.00000000	          0.00000000	          0.00000000	
          1.36400000	         -4.85733762	         79.54399023	         -7.03840426	         -0.07253072	          0.00000000	         -0.01355809	         -0.00000000	          0.00000000	         -0.00000000	          0.00000000	          0.00000000	          0.00000000	          0.00000000	          0.13657369	          0.00000000	          0.00000000	          0.00000000	          0.00000000	
          1.36500000	         -5.44516118	         85.15739808	         -7.37847014	         -0.09118801	          0.00000000	         -0.01641681	         -0.00000000	          0.00000000	         -0.00000000	          0.00000000	          0.00000000	          0.00000000	          0.00000000	          0.14736195	          0.00000000	          0.00000000	          0.00000000	          0.00000000	
          1.36600000	         -6.05789644	         90.91478410	         -7.71788531	         -0.10959010	          0.00000000	         -0.01924877	         -0.00000000	          0.00000000	         -0.00000000	          0.00000000	          0.00000000	         -0.00000000	          0.00000000	          0.15857765	          0.00000000	          0.00000000	          0.00000000	          0.00000000	
          1.36700000	         -6.69556047	         96.80658937	         -8.05524494	         -0.12768882	          0.00000000	         -0.02204696	         -0.00000000	          0.00000000	         -0.00000000	         -0.00000000	          0.00000000	         -0.00000000	          0.00000000	          0.17021316	          0.00000000	          0.00000000	          0.00000000	          0.00000000	
          1.36800000	         -7.35810846	        102.82197551	         -8.38903233	         -0.14543928	          0.00000000	         -0.02480481	         -0.00000000	          0.00000000	         -0.00000000	         -0.00000000	          0.00000000	         -0.00000000	          0.00000000	          0.18225826	          0.00000000	          0.00000000	          0.00000000	          0.00000000	
          1.36900000	         -8.04545244	        108.94889029	         -8.71762191	         -0.16280131	          0.00000000	         -0.02751636	         -0.00000000	          0.00000000	         -0.00000000	         -0.00000000	          0.00000000	         -0.00000000	          0.00000000	          0.19470018	          0.00000000	          0.00000000	          0.00000000	          0.00000000	
          1.37000000	         -8.75748320	        115.17419531	         -9.03928413	         -0.17973962	          0.00000000	         -0.03017638	         -0.00000000	          0.00000000	         -0.00000000	         -0.00000000	          0.00000000	         -0.00000000	          0.00000000	          0.20752372	          0.00000000	          0.00000000	          0.00000000	          0.00000000	
          1.37100000	         -9.49409387	        121.48386533	         -9.35219237	         -0.19622356	          0.00000000	         -0.03278027	         -0.00000000	          0.00000000	         -0.00000000	         -0.00000000	          0.00000000	         -0.00000000	          0.00000000	          0.22071157	          0.00000000	          0.00000000	          0.00000000	          0.00000000	
          1.37200000	        -10.25520359	        127.86326714	         -9.65443204	         -0.21222674	          0.00000000	         -0.03532408	         -0.00000000	         -0.00000000	         -0.00000000	         -0.00000000	          0.00000000	         -0.00000000	          0.00000000	          0.23424469	          0.00000000	          0.00000000	          0.00000000	          0.00000000	
          1.37300000	        -11.04077778	        134.29751653	         -9.94401234	         -0.22772684	          0.00000000	         -0.03780442	         -0.00000000	         -0.00000000	         -0.00000000	         -0.00000000	          0.00000000	         -0.00000000	          0.00000000	          0.24810260	          0.00000000	          0.00000000	          0.00000000	          0.00000000	
          1.37400000	        -11.85084180	        140.77189656	        -10.21888113	         -0.24270534	          0.00000000	         -0.04021848	         -0.00000000	         -0.00000000	         -0.00000000	         -0.00000000	          0.00000000	         -0.00000000	          0.00000000	          0.26226336	          0.00000000	          0.00000000	          0.00000000	          0.00000000	
          1.37500000	        -12.68548487	        147.27230294	        -10.47694331	         -0.25714723	          0.00000000	         -0.04256394	         -0.00000000	         -0.00000000	         -0.00000000	         -0.00000000	          0.00000000	         -0.00000000	          0.00000000	          0.27670356	          0.00000000	          0.00000000	          0.00000000	          0.00000000	
          1.37600000	        -13.54485277	        153.78566992	        -10.71608263	         -0.27104080	          0.00000000	         -0.04483897	         -0.00000000	         -0.00000000	         -0.00000000	         -0.00000000	          0.00000000	         -0.00000000	          0.00000000	          0.29139804	          0.00000000	          0.00000000	          0.00000000	          0.00000000	
          1.37700000	        -14.42913021	        160.30032808	        -10.93418648	         -0.28437740	          0.00000000	         -0.04704217	         -0.00000000	         -0.00000000	         -0.00000000	         -0.00000000	          0.00000000	         -0.00000000	          0.00000000	          0.30631966	          0.00000000	          0.00000000	          0.00000000	          0.00000000	
          1.37800000	        -15.33851576	        166.80625492	        -11.12917246	         -0.29715122	          0.00000000	         -0.04917254	         -0.00000000	         -0.00000000	         -0.00000000	         -0.00000000	          0.00000000	         -0.00000000	          0.00000000	          0.32143899	          0.00000000	          0.00000000	          0.00000000	          0.00000000	
          1.37900000	        -16.27319343	        173.29519688	        -11.29901544	         -0.30935907	          0.00000000	         -0.05122945	         -0.00000000	         -0.00000000	         -0.00000000	         -0.00000000	          0.00000000	         -0.00000000	          0.00000000	          0.33672409	          0.00000000	          0.00000000	          0.00000000	          0.00000000	
          1.38000000	        -17.23330479	        179.76066205	        -11.44177324	         -0.32100018	          0.00000000	         -0.05321260	         -0.00000000	         -0.00000001	         -0.00000000	         -0.00000000	          0.00000000	         -0.00000000	          0.00000000	          0.35214035	          0.00000000	          0.00000000	          0.00000000	          0.00000000	
          1.38100000	        -18.21892456	        186.19779987	        -11.55560962	         -0.33207601	          0.00000000	         -0.05512196	         -0.00000000	         -0.00000001	         -0.00000000	         -0.00000000	          0.00000000	         -0.00000000	          0.00000000	          0.36765048	          0.00000000	          0.00000000	          0.00000000	          0.00000000	
          1.38200000	        -19.23004099	        192.60319600	        -11.63881332	         -0.34259002	          0.00000000	         -0.05695778	         -0.00000000	         -0.00000001	         -0.00000000	         -0.00000000	          0.00000000	         -0.00000000	          0.00000000	          0.38321450	          0.00000000	          0.00000000	          0.00000000	          0.00000000	
          1.38300000	        -20.26654069	        198.97461518	        -11.68981293	         -0.35254755	          0.00000000	         -0.05872054	         -0.00000000	         -0.00000001	         -0.00000000	         -0.00000000	          0.00000000	         -0.00000000	          0.00000000	          0.39878968	          0.00000000	          0.00000000	          0.00000000	          0.00000000	
          1.38400000	        -21.32819685	        205.31072361	        -11.70718760	         -0.36195560	          0.00000000	         -0.06041093	         -0.00000000	         -0.00000001	         -0.00000000	         -0.00000000	          0.00000000	         -0.00000000	          0.00000000	          0.41433021	          0.00000000	          0.00000000	          0.00000000	          0.00000000	
